<mxfile host="app.diagrams.net" modified="2023-04-11T00:10:09.928Z" agent="Mozilla/5.0 (Windows NT 10.0; Win64; x64; rv:102.0) Gecko/20100101 Firefox/102.0" etag="O37QB46WU9CzHLnfqYT9" version="21.1.0" type="device">
  <diagram name="Page-1" id="ATDJSIqN69j0ffld8cj0">
    <mxGraphModel dx="1050" dy="566" grid="1" gridSize="10" guides="1" tooltips="1" connect="1" arrows="1" fold="1" page="1" pageScale="1" pageWidth="850" pageHeight="1100" math="1" shadow="0">
      <root>
        <mxCell id="0" />
        <mxCell id="1" parent="0" />
        <mxCell id="kvnKI0HXFiKHXwkqbqRl-1" value="&lt;font style=&quot;font-size: 16px;&quot;&gt;\begin{bmatrix}&lt;br&gt;f_{k-n_r}^{s_1} &amp;amp; f_{k-n_r}^{s_2} &amp;amp; \cdots&amp;nbsp; &amp;amp; f_{k-n_r}^{s_a}\\ &lt;br&gt;&amp;nbsp;\vdots &amp;amp; \vdots&amp;nbsp; &amp;amp; \ddots&amp;nbsp; &amp;amp; \vdots \\ &lt;br&gt;f_{k-1}^{s_1} &amp;amp; f_{k-1}^{s_2} &amp;amp; \cdots &amp;amp; f_{k-1}^{s_a} \\ &lt;br&gt;f_{k}^{s_1} &amp;amp; f_{k}^{s_2} &amp;amp; \cdots &amp;amp; f_{k}^{s_a}&lt;br&gt;\end{bmatrix}&lt;/font&gt;" style="text;html=1;align=center;verticalAlign=middle;resizable=0;points=[];autosize=1;strokeColor=none;fillColor=none;" vertex="1" parent="1">
          <mxGeometry x="200" y="50" width="450" height="130" as="geometry" />
        </mxCell>
        <mxCell id="kvnKI0HXFiKHXwkqbqRl-2" value="" style="shape=image;verticalLabelPosition=bottom;labelBackgroundColor=default;verticalAlign=top;aspect=fixed;imageAspect=0;image=data:image/png,iVBORw0KGgoAAAANSUhEUgAAAE8AAABPCAYAAACqNJiGAAAGD0lEQVR4Xu1ca0ybZRR+obTc2QpVtshtkclG4lCBQbhkUGFbthArdjOLCwvKRCcxGmBLMEZwMi9kiQmIdcZMNOIPJxAi25xmyQyCXNQhl03YiHIdUCjXUtYypETbHJ7vh2EmKj38fDjvx/c9nMt7znnP6xQcHLwk+GdNDDgxeWvibWWRjbzRWYPwCfEnT1KajfBkz7FpwBZ8PQG74aQCzEthBsxnyYRypnmCjXn4gMwd4QRYwPAtlPNyA8zZsoiMLVgAm1fS7xoanBQbfO61ydnIM6kU4khLGXmAduhHeGD0mW8A6zkUB5hGnglYXPAQYCnmbsCSOjsJpotUg4xRKAB7u7gEsLmEragA+hkk7+YYYJ3aWIId1JwRczP2v8vk/UUPk/cvaZ77Bov4+EIOUdOYmkZU77zziOUnAvZqYR6a7XQvYOqWdsBcq68SrD1vH5qtqytgMeGF+G5pYYgNot8WHaMol0u/K6q0UehdlOjzmDwmjzWPzdaRfJ7MV4i3vn+FqH36lSYwA1nR12gaOfGAHTnwImCxsj7c5/V0ALb1218IVpexBwOGHPd5B1JP4rvt34bYsMQ+rwM32OJYAlkbdeK80C96Y8Bg8pg81jw2W0fyeUt+zqKg6Q2i9pqrrWAG/sUXADM/Tx2rVUAT+wJmGN4SAWO4CzOFepp1VGgwYJicXWBd9lOn0Gz3SASMEYkMo2sE1s49QwNhYvY5MbHggQGDyWPyWPNi2GwdyOd5+JjFp3XHiNpHVkmUpHL/Xkmq6FQ+BozJm4Cpm7AkJfuSlqSundiPGYYrZhiRYYX/bGEgb1VJ6v0moZcvp2J//tgqyUyeREmKybuLYiiTx+T9t33e0HJv9J7KOvKS6TtuwEtn9dUDVhX8CGB1+SmAte+dAixlJ7Yj1d40sJRfj4R1pgUZYLV+nwDWunkLYL7mOcCCDOP4XZvpd1VE5wg3/W0MGEwek8eax2brSD5v2MtHBHxRS9Reuw3PkWT9+h061rAowCpexzLScOokBoyHBzDrUKwKGH3RGG1NGDC+kp8Fueag+wFTmbCHETSux+8KoYHqg+iXhUJvP6xkyzCYPCaPNU/NZutAPm9RJRMvtbxDM4wu7GFsOY1N76mnsemt2Z4NJhTnKxEcDNcxYDTSprdu724MGM5ywHKffRMwkSqR245KNL2vYRl+JJN+1+6Mz8SU0R0zDCaPyWPNU//fzNag9BAJVyrpJtkdS+SZFy/Df7daTQ8+WwWeuKwFuZgoPDSdsglPiyYZ6OZc544+1WhGn1fbQA+kW1+gdUcoVlWmZ7GqMoDvVhO/k8gVxJ8UixN2yLZJZvKYPKyqsOax2Yp16/P6FBuFvPwSDRiJ6MyzZrGXW6V8CMyl5xCOF9Q/jpvTB3fh/kq96TfyvPLGCNwkGyWqKpGfY267UaIMfwfHwkJmJQoDnvTv1sQcFZ7j9nEvW8Bg8pg81jw2W0fyeWMmP7H9cANR+/FMPCGeFd6G5eoBPH2ZFvQAyP1wEGdaLx3GXu6uuGGydqQMS+keM87w/LQSHGdtngkAOZUbBowgObYIqnppRaZXoxH+M/agZwsYTB6ThwGDNY/NVqxbn3dbJRdHW94lap/++09gBhFlWIbvz5C4Y0CZBWvj7hsETD2PvWH1z3QeTRf/KGYYAktSRQW0jWBdZE7GwCUfkyjDd+PhxtV3J6RrPxIzs/YhaVvAYPKYPNBQ1jw2WyHWrc/zXB4lqKx9jqh9xDmacaz8Mv8imIbIxWJlcclxDBgTOEqQ3EB7tCuLqmkW03Nc4nYLN7zdIiL0NXw3qdstbmEPQ7RJzNuuurUj6sNWoVdIjBIweUweax6brSP5PKPKVTzZrKMZhoHOgFl/mXyW9jmsWJtWIsOYy8CAEUpLTVaBFOcekEvqpgPMuvBkzDCWMMMoLT0NciPxmGGo9DisLOvFvm3LY7SZn7HvPTE/ZR+StmUYTB6Tx5rHZutIPo/Hp3h8CnweD+7x1KMQPDLK87Y212DbJPf39wsXF7xiCDNtx0UsFosIDAxE8hyXkrV/Od8Nv3bu7HfD38UzHHbpH2yd5R0wb8yCAAAAAElFTkSuQmCC;clipPath=inset(3.16% 4.43% 4.43% 3.16%);" vertex="1" parent="1">
          <mxGeometry x="240" y="240" width="79" height="79" as="geometry" />
        </mxCell>
        <mxCell id="kvnKI0HXFiKHXwkqbqRl-3" value="" style="shape=image;verticalLabelPosition=bottom;labelBackgroundColor=default;verticalAlign=top;aspect=fixed;imageAspect=0;image=data:image/png,iVBORw0KGgoAAAANSUhEUgAAAE8AAABQCAYAAABYtCjIAAAGEUlEQVR4Xu1cXUxbZRj+oB1Qfg5t6aYuKzVhMOa6wlxXTBh11iXqhoREJGRqSDTGOBONWbKZLDHZhV64yI2JyS70wiyGbMrMYmayCIEN1v3AZBUY24L8lN9yaPkpLR3FOkw4Z2+fejOuLG/vePm+75w+fd/3+d7nvN9JsVgsMcGfJ0IghcF7Itz+naSA5w/KYnN+HlkpnJoGKxsii2CLajRgC2lxrhQJwzhdcAnvPrpCbIvGHBgT1m4CmzEYBNtSOt5HZiiC1wwmsE3R9YYezcq2WJS5CngaY0x81X6SLNqt2wYXqR26BTZfbi7YPHqce3C4F8btbuvBLxIIEZu7zglj+k1bwVZ3tQNsfYVmsO29/QCv2TGAttPtxGZ/9JfM4DF47HlJEbYLeTpxyP09+TU945vh162x3MWcF8sGW08A57qMgzDuwPQ9sEkhSiyNFgfmvJAJPS+1G3NextNgsweHwVY6uEoH9GM+66Y574duIWeopKoQBoPH4LHncdhupJznk3JE4cULlDB69UgYLkz6vmAmEsaAAWyukjGwOdNxPSlKq47GcAkSxijeW91z/Ri2i0hcjqxRGGcLou31lpuUMI79KuSoSo4KYTB4DB57HoftRsp5I1q90J5uIW5v68iCMJiunwKbPJMOtmduYNWxfGgGCWMHkoheG0cYnUUwL9aDMlVJNVYO/SNILPbt01hhZE2ArWqUVizvHP5WhOZVKUwhDAaPwcMtDXseh61I2pw3kS2JbecvErefuoPyesVrIxAavnkdVhj3MFG79mFecUqoZuj/jpOk/LsxHIdx/drn7+M+bxalK4dhHAljCTfJVW76yKH8w5+FP6KSqEIYDB6Dx57HYbuRct70Up7Y+fY14vbWFnyw3HRsHkJjyyiOs17JgHEtRxbAVlCBu31J95CMe3A+H+YVdeL6d4/6YNyKByuRnLIAEsazMlYYaX3EduqFz4WYUbtTFMJg8Bg89jwO242U87ypBqH7Mk6SuoqS1PD7KEn5fJi8C27i3IXKBJJUMe72JS3tWGq8XgjhmOVByavwTax++gYTSFI7ML+VSpNIGJNUknr31W9EeE6rjFMIg8Fj8LDCYM/jsBVJm/MChkyxv+1H4vaeIdpmu/rPGivKPr5lJIeeCZSCXPn4jOFACBsN49tvG3P3oiQVwHurM/6JYZvyFNjsUS9WGON4byUXrpNx9oZ2IWvUh/kKYTB4DB573v8ubGf02aL08jma8+5js05NGXaN+5YS5LwRI3iBqwhzjTP2F4zTP6Td8I3aPZjzfLh+rZmqIKuT+pa3wFyHNkHOk3GDXXHpBs15p5qFHJNwk8zgMXiY89jzOGxF0ua84U16kdLQTNzedg2JYLEeC2ifjI0+uV0of6e/gmqGswAf+Ukaqqqc82DHwEIvrl9eiXu1vhEkPcd2VIZsGfi9qoduEzzqqs6IxQX1LJuySWbwGDwkDPY8DluRtDnPH8wT9kqqItguq5LzWjw0ncDDyqYxHGdtxUPCrW/RymF1Tc1BlOalrGUSfpGzeLa22I0k9dunuJa5C0kv8OIchLet0I8yvIEeTWhwnBAaWT1I/dhJbwYvHr0qBo89D0KKwzZZct6YMAjDyTZaYVzBjs9bH2CVEJ7G5G1143m0gSpssHGW4OZUSourMNoKwPMsf+D6uUfwWEL/AHa32nfhd7DlYZNQ9ewdct2jrq9FZFZ9k4dCGAweg4eiKXseh61I2pzHqgqrKqyqsBjKSjLL8I/ngf+U4ef8JvFyGX3Ia/0d34v3y2f4vjvTKI6zNqNM1VqP76gbPIxVhyRFSe4yn8FmnSI3rv/TcZSaijuxEul6CY802HbNoiRloU1N3+37RKTJqlymVBgMHoOH6gt7HoetSNqcNxk1ivyP6DsybS0oNTV9jLnBNJng7FkHylmtb+C5tfIyfAAtZdCzZ22X1JecrsVlIiIIvIeHob39alfT2tyde/B5hW0rnoGrjtJO0+P7vxAr/hTskmLwGDwgDPY8Dlshkjbneb1eodXirh3iYAMbotGoMJvVl1bzu+HX4QwMHoO3DgTWMfUfvXM8iTLmQQ0AAAAASUVORK5CYII=;clipPath=inset(3.75% 5.7% 7.5% 4.43%);" vertex="1" parent="1">
          <mxGeometry x="360" y="239" width="81" height="81" as="geometry" />
        </mxCell>
        <mxCell id="kvnKI0HXFiKHXwkqbqRl-4" value="" style="shape=image;verticalLabelPosition=bottom;labelBackgroundColor=default;verticalAlign=top;aspect=fixed;imageAspect=0;image=data:image/png,iVBORw0KGgoAAAANSUhEUgAAAEsAAABMCAYAAAAlS0pSAAAGF0lEQVR4Xu2cW0xcVRSG9x6gwICDMNxaKJTLMMJQBqGlkYCIF1ATTVoxtn2x8qC2aVJf1Br7YExMbGIao0kxlZg2WtIb0ZQMhVEqUqQtl2krUYpRgsMIZZgOMDDgMJfjmTov2/888GJ6EhePf/be5+Rnre+ss87ew3NzcyVGf+tygDNdisQzs4XBWxIXYfIyjwVtLRSFWgC1YIjjzSxGgxaV7Be0QBDnhby4fsKiBtZayQyAFjeH11zRhdZlFPvjJ8Z5UZkU22IVJnxRbYEF+mPyQXOs6kCzux8AzeONAS3YlQpa0s47gub24D9odTgJ5lV1akEbemsWNNNn6aANNyyDplH4J/maM8gsMkuOlf8ksjTGMkl7oltMw+0dEJp9sYWgTf+FKWefR21hCdPJ141pqN85I6bhIs5bGlFIw0sJcG+33hZTOjzA0IJpONiIaRgdQFb6X85knMwisxhFlpxKlIYR4qieWXEbH5byXvtRAGTdkUEA5sBUFmh3XPGgzU+hppvHYrCmHaHc9YpYDKc4sT4r7Y+Da1Z04Ppn3vfCuOeP4TVvPi0WwuFJSnXW1dOJjJNZZBajyJJThNIwQhfVMyt+a6lkuPi1AMOvpNMAx97cYtAc/EHQ7D6ssBd8CGXr1U0wd1fdpKC5VvBhYRvTw7ysHryP5NfFtcKT/mzbDHN9dQugBRQqeE9tPuNkFpnFKLLkhKE0jFBD9czSpldIpr0DAuQMH94A6F2byMQKfhYBHDuJMNfNYyu4uh27m9ZmsQOQMouVeUk/tm3KO3H9c++tYgX/Ed7bzWeDME6DEuvpSGCczCKzGEWWnDCUhhFqqJ5ZzGCWNJ98K0Cu9YkugF4/ywNtekWhB+9KhHEe7wbQ4i1YiUe9KPbNXW6Eecwwfn6rsuDD4vt3nHDNHcex7z/csIKAV/jOubQ/jXEyi8xiFFlywlAaRqihemZpy0xSSWe7ALm2pS+xRVOo0KKJwtbIpD8Z5i6sKbRoBrGn31QzIbZoVhHcw+MI6eQevGbWq+Ja4YXHz+bCvcXUzoMWkvAjq3N7oVzBk1lkFkWWHAOUhpFEUD2zdOUlUnVvm5C3Z0ZbEfDlJtDs2hTQJjlqCwEFwI8hbJtKfxUBH1AAvD0DrjnXh9Cv3zMO4zosBaAVV91FZilU8LeNJsbJLDKLUWSFAX8/05Dnm6UNRy8LeXt0Vw/k8YAPGePwYNfB4cTNFwuLuMEjz4KF5N09cyKzXNit2Hwdr7nNgkw8ewTT67lPkae2Bmw/axQ2MM8c1ssbcMkshRYNSIzMkj2hyJJNoDSUTbivzEqQX6TN1vNi18F5CotSYwlojhiFjSFB1Nx+/L5oHRGPwIQXb9rxuwh4Hxaltok0uI8oha5DcbO4VnjSUDu2xpOr3Qov0sgsR7mRcTKLzGIUWeGnF6XhP4xQPbN05cVSzQ9i1+Gc7QQQ7nJlKQJeqeugUeg6BLHC7hrbAutB18Gv0HWYwq7DzBXsOjTuvg3rt18ygGauEt8awgMCQTy/+IuhNNx1ILP+7SCZJTtCkSWbQGkom+BSG7PSKoukF66LQG9p/RhA+POTZtDsqQjWyUTU3BoEdacTYbs7bVSs4Dm2ewY9WPn33cBdiQfrbsH9nhzB1nhNiXgg9B7gQwj4Lv0jjJNZZBajyJJThNIwQhfVM2tTZYF0YOiYAMN3D34AcFx6aRsCPgvbJRPpeMLdHYu7ATuDD8F6e4M2QXPGYb/9moTfAnp/Q+i/YcQDpq32CrjmozlToCltDGnVNjJOZpFZjCJLThhKwwg1VM8sozlb+tx6SIBcbcabAD12oAq1Mjxg6TVuhHEuPW7H/sZUCeP2DfSJgE/Fg579BUaY910I3wYOT4s/GROedDznMZj7+Jq4GeVeBc/xLNC+pP2Mk1lkFqPIklOE0jBCEtUza4Npq5R9/qIAvpP6CwDCvrQi0BwhBLDdq3D6fhXP4IxcwV56/VNigehaxt69bRR7/JXd+ADxHcJi038Kt5NP1ePvGyqdvg89k8M4mUVmMYosGQSUhhEaqp5ZGo1Gio7GU+5Yrv+/lUAgwDj9XPD6g+BvOnM3QNDBjEoAAAAASUVORK5CYII=;clipPath=inset(2.63% 2% 3.95% 2%);" vertex="1" parent="1">
          <mxGeometry x="530" y="239" width="81.13" height="80" as="geometry" />
        </mxCell>
        <mxCell id="kvnKI0HXFiKHXwkqbqRl-5" value="" style="endArrow=classic;html=1;rounded=0;entryX=0.5;entryY=0;entryDx=0;entryDy=0;" edge="1" parent="1" target="kvnKI0HXFiKHXwkqbqRl-2">
          <mxGeometry width="50" height="50" relative="1" as="geometry">
            <mxPoint x="340" y="190" as="sourcePoint" />
            <mxPoint x="180" y="250" as="targetPoint" />
          </mxGeometry>
        </mxCell>
        <mxCell id="kvnKI0HXFiKHXwkqbqRl-6" value="" style="endArrow=classic;html=1;rounded=0;entryX=0.5;entryY=0;entryDx=0;entryDy=0;" edge="1" parent="1" target="kvnKI0HXFiKHXwkqbqRl-3">
          <mxGeometry width="50" height="50" relative="1" as="geometry">
            <mxPoint x="401" y="190" as="sourcePoint" />
            <mxPoint x="450" y="270" as="targetPoint" />
          </mxGeometry>
        </mxCell>
        <mxCell id="kvnKI0HXFiKHXwkqbqRl-8" value="&lt;font style=&quot;font-size: 30px;&quot;&gt;...&lt;/font&gt;" style="text;html=1;align=center;verticalAlign=middle;resizable=0;points=[];autosize=1;strokeColor=none;fillColor=none;" vertex="1" parent="1">
          <mxGeometry x="461" y="246" width="50" height="50" as="geometry" />
        </mxCell>
        <mxCell id="kvnKI0HXFiKHXwkqbqRl-9" value="" style="endArrow=classic;html=1;rounded=0;entryX=0.5;entryY=0;entryDx=0;entryDy=0;" edge="1" parent="1" target="kvnKI0HXFiKHXwkqbqRl-4">
          <mxGeometry width="50" height="50" relative="1" as="geometry">
            <mxPoint x="510" y="190" as="sourcePoint" />
            <mxPoint x="430" y="270" as="targetPoint" />
          </mxGeometry>
        </mxCell>
        <mxCell id="kvnKI0HXFiKHXwkqbqRl-10" value="&lt;font style=&quot;font-size: 16px;&quot;&gt;$$F_{t}^{s}:=$$&lt;/font&gt;" style="text;html=1;strokeColor=none;fillColor=none;align=center;verticalAlign=middle;whiteSpace=wrap;rounded=0;" vertex="1" parent="1">
          <mxGeometry x="90" y="110" width="60" height="30" as="geometry" />
        </mxCell>
        <mxCell id="kvnKI0HXFiKHXwkqbqRl-11" value="&lt;font style=&quot;font-size: 16px;&quot;&gt;$$GAF(F_{t}^{s}):=$$&lt;/font&gt;" style="text;whiteSpace=wrap;html=1;" vertex="1" parent="1">
          <mxGeometry x="90" y="246" width="130" height="40" as="geometry" />
        </mxCell>
        <mxCell id="kvnKI0HXFiKHXwkqbqRl-13" value="" style="rounded=1;whiteSpace=wrap;html=1;opacity=20;strokeWidth=3;" vertex="1" parent="1">
          <mxGeometry x="319" y="50" width="45" height="140" as="geometry" />
        </mxCell>
        <mxCell id="kvnKI0HXFiKHXwkqbqRl-14" value="" style="rounded=1;whiteSpace=wrap;html=1;opacity=20;strokeWidth=3;" vertex="1" parent="1">
          <mxGeometry x="380" y="50" width="45" height="140" as="geometry" />
        </mxCell>
        <mxCell id="kvnKI0HXFiKHXwkqbqRl-15" value="" style="rounded=1;whiteSpace=wrap;html=1;opacity=20;strokeWidth=3;" vertex="1" parent="1">
          <mxGeometry x="485" y="50" width="45" height="140" as="geometry" />
        </mxCell>
      </root>
    </mxGraphModel>
  </diagram>
</mxfile>
